<?xml version="1.0" encoding="UTF-8" standalone="no"?>
<svg
   viewBox="0 0 793.7007874015749 1122.5196850393702"
   width="793.7007874015749"
   height="1122.5196850393702"
   version="1.1"
   id="svg44"
   sodipodi:docname="Guitar outlines separated.svg"
   inkscape:version="1.4.3 (0d15f75042, 2025-12-25)"
   xmlns:inkscape="http://www.inkscape.org/namespaces/inkscape"
   xmlns:sodipodi="http://sodipodi.sourceforge.net/DTD/sodipodi-0.dtd"
   xmlns="http://www.w3.org/2000/svg"
   xmlns:svg="http://www.w3.org/2000/svg">
  <sodipodi:namedview
     id="namedview44"
     pagecolor="#ffffff"
     bordercolor="#000000"
     borderopacity="0.25"
     inkscape:showpageshadow="2"
     inkscape:pageopacity="0.0"
     inkscape:pagecheckerboard="0"
     inkscape:deskcolor="#d1d1d1"
     inkscape:zoom="0.35848331"
     inkscape:cx="90.659729"
     inkscape:cy="1020.968"
     inkscape:window-width="990"
     inkscape:window-height="995"
     inkscape:window-x="26"
     inkscape:window-y="23"
     inkscape:window-maximized="0"
     inkscape:current-layer="g44" />
  <desc
     id="desc1">Strat vintage accurate.DXF - scale = 25.400000, origin = (0.000000, 0.000000), method = manual</desc>
  <defs
     id="defs4">
    <marker
       id="DistanceX"
       orient="auto"
       refX="0.0"
       refY="0.0"
       style="overflow:visible">
      <path
         d="M 3,-3 L -3,3 M 0,-5 L  0,5"
         style="stroke:#000000; stroke-width:0.5"
         id="path1" />
    </marker>
    <pattern
       id="Hatch"
       patternUnits="userSpaceOnUse"
       width="8"
       height="8"
       x="0"
       y="0">
      <path
         d="M8 4 l-4,4"
         stroke="#000000"
         stroke-width="0.25"
         linecap="square"
         id="path2" />
      <path
         d="M6 2 l-4,4"
         stroke="#000000"
         stroke-width="0.25"
         linecap="square"
         id="path3" />
      <path
         d="M4 0 l-4,4"
         stroke="#000000"
         stroke-width="0.25"
         linecap="square"
         id="path4" />
    </pattern>
    <symbol
       id="*Model_Space" />
    <symbol
       id="*Paper_Space" />
    <symbol
       id="*Paper_Space0" />
  </defs>
  <g
     inkscape:groupmode="layer"
     inkscape:label="0"
     id="g44"
     style="display:inline">
    <path
       id="path578"
       style="display:inline;fill:none;stroke:#000000;stroke-width:3.77953;stroke-linecap:round;stroke-dasharray:none"
       d="m -161.14996,1800.8192 a 1027.0029,1027.0029 0 0 0 323.01718,0"
       inkscape:label="Les Paul bottom" />
    <path
       id="path565"
       style="display:inline;fill:none;stroke:#000000;stroke-width:3.77953;stroke-linecap:round;stroke-dasharray:none"
       d="m 434.24892,474.18706 a 223.8499,223.8499 0 0 0 2.3465,-121.30752 m -43.4749,220.58799 a 543.84111,543.84111 0 0 0 41.1284,-99.28047 m -41.1284,99.28047 a 672.88309,672.88309 0 0 0 -40.933,92.54423 m 0,0 a 140.73475,140.73475 0 0 0 -8.083,44.24951 m 0,0 a 324,324 0 0 0 0,13.0741 m 0,0 a 103.08588,103.08588 0 0 0 11.8664,45.97763 m 0,0 a 289.5543,289.5543 0 0 0 47.523,65.7876 m 44.3996,47.99063 a 1664.9715,1664.9715 0 0 0 -44.3996,-47.99063 m 135.9909,161.42725 a 1529.9647,1529.9647 0 0 0 -91.5913,-113.43662 m 180.4087,342.17847 a 475.0698,475.0698 0 0 0 -88.8174,-228.74185 m 88.8174,347.95895 a 547.2,547.2 0 0 0 0,-119.2171 m -199.891,464.6348 a 494.4,494.4 0 0 0 199.891,-345.4177 m -466.435,456.3324 a 616.32,616.32 0 0 0 266.544,-110.9147"
       inkscape:label="Les Paul treble side" />
    <path
       id="path306"
       style="display:inline;fill:none;stroke:#000000;stroke-width:3.77953;stroke-linecap:round;stroke-dasharray:none"
       inkscape:label="Les Paul inner treble cutaway"
       d="m 103.72362,332.05871 a 108,108 0 0 0 117.7442,105.9055 m 0,0 a 177.55491,177.55491 0 0 0 91.3749,-35.45111 m 0,0 a 246.76167,246.76167 0 0 0 59.4493,-64.87068 m 42.8627,-11.62376 a 32.809228,32.809228 0 0 0 -42.8627,11.62376 m 64.3034,15.23712 a 42.280472,42.280472 0 0 0 -21.4407,-26.86088" />
    <path
       id="path579"
       style="display:inline;fill:none;stroke:#000000;stroke-width:3.77953;stroke-linecap:round;stroke-dasharray:none"
       d="m -427.69406,1689.9045 a 616.32,616.32 0 0 0 266.5441,110.9147 m -466.43506,-456.3324 a 494.4,494.4 0 0 0 199.89096,345.4177 m -199.89096,-464.6348 a 547.2,547.2 0 0 0 0,119.2171 m 88.81737,-347.95895 a 475.0698,475.0698 0 0 0 -88.81737,228.74185 m 180.40866,-342.17847 a 1529.9647,1529.9647 0 0 0 -91.59129,113.43662 M -402.77666,835.1006 a 1664.9715,1664.9715 0 0 0 -44.3997,47.99063 m 44.3997,-47.99063 a 289.5543,289.5543 0 0 0 47.52297,-65.7876 m 0,0 a 103.08588,103.08588 0 0 0 11.86634,-45.97763 m 0,0 a 324,324 0 0 0 0,-13.0741 m 0,0 a 140.73475,140.73475 0 0 0 -8.08296,-44.24951 m 0,0 a 672.88309,672.88309 0 0 0 -40.93302,-92.54423 m -41.12833,-99.28047 a 543.84111,543.84111 0 0 0 41.12833,99.28047 m 16.39258,-323.91977 a 223.8499,223.8499 0 0 0 -57.52091,224.6393 m 299.04658,-323.30874 a 344.94118,344.94118 0 0 0 -241.52567,98.66944"
       inkscape:label="Les Paul bass side" />
    <path
       id="path540"
       style="display:inline;fill:none;stroke:#000000;stroke-width:3.77953;stroke-linecap:round;stroke-dasharray:none"
       d="m 207.57948,1573.0718 a 506.62295,506.62295 0 0 0 222.0887,-67.7318 m -615.13871,32.8811 a 1103.882,1103.882 0 0 0 393.05001,34.8507 m -558.21574,-101.2923 a 715.38837,715.38837 0 0 0 165.16573,66.4416"
       inkscape:label="Wolfgang bottom" />
    <path
       id="path528"
       style="display:inline;fill:none;stroke:#000000;stroke-width:3.77953;stroke-linecap:round;stroke-dasharray:none"
       d="m 468.57998,354.6914 a 80.026627,80.026627 0 0 0 -29.3059,-27.90933 m 44.8036,75.54269 a 110.26673,110.26673 0 0 0 -15.4977,-47.63336 m 13.069,97.84954 a 175.20625,175.20625 0 0 0 2.4287,-50.21618 m -33.6303,136.8878 a 358.97154,358.97154 0 0 0 31.2016,-86.67162 m -31.2016,86.67162 a 411.71407,411.71407 0 0 0 -23.1018,55.81441 m 0,0 a 184.6931,184.6931 0 0 0 -8.1706,54.58848 m 0,0 a 217.88493,217.88493 0 0 0 15.3965,73.80163 m 0,0 a 980.22404,980.22404 0 0 0 53.4826,113.49858 m 70.0975,156.15476 a 1204.4826,1204.4826 0 0 0 -70.0975,-156.15476 m 106.2433,283.32604 a 841.37042,841.37042 0 0 0 -36.1458,-127.17128 m -1.9842,377.47618 a 390.2352,390.2352 0 0 0 38.13,-250.3049 M 429.66818,1505.34 a 347.32096,347.32096 0 0 0 126.4992,-134.7934"
       inkscape:label="Wolfgang treble side" />
    <path
       id="path543"
       style="display:inline;fill:none;stroke:#000000;stroke-width:3.77953;stroke-linecap:round;stroke-dasharray:none"
       d="m -445.9077,1402.135 a 512.5946,512.5946 0 0 0 95.27144,69.6445 M -586.49459,1180.6874 A 503.01657,503.01657 0 0 0 -445.9077,1402.135 M -593.30279,946.59687 a 442.10048,442.10048 0 0 0 6.8082,234.09053 m 42.30612,-367.02771 a 637.37588,637.37588 0 0 0 -49.11432,132.93718 m 106.82647,-233.09533 a 1314.0912,1314.0912 0 0 0 -57.71215,100.15815 m 57.71215,-100.15815 a 1129.6898,1129.6898 0 0 0 53.38866,-93.74639 m 0,0 a 271.38851,271.38851 0 0 0 27.37343,-83.9187 m 0,0 a 260.07629,260.07629 0 0 0 -6.37487,-94.46587 m 0,0 a 1006.3371,1006.3371 0 0 0 -34.6734,-105.88935 m -31.72633,-94.74986 a 1226.643,1226.643 0 0 0 31.72633,94.74986 m -44.63952,-189.54889 a 330.49588,330.49588 0 0 0 12.91319,94.79903 M -441.41486,-3.9483729 A 252.51613,252.51613 0 0 0 -491.40202,145.93234 m 86.26714,-180.260213 a 97.665085,97.665085 0 0 0 -36.27998,30.3795001"
       inkscape:label="Wolfgang bass side" />
    <path
       id="path263"
       style="display:inline;fill:none;stroke:#000000;stroke-width:3.77953;stroke-linecap:round;stroke-dasharray:none"
       d="m 101.29758,333.78712 a 108,108 0 0 0 66.9997,98.26718 m 0,0 a 155.1245,155.1245 0 0 0 59.7492,11.60306 m 0,0 a 166.78304,166.78304 0 0 0 144.6772,-88.49213 m 13.5339,-20.84762 a 122.31592,122.31592 0 0 0 -13.5339,20.84762 m 36.1757,-34.49522 a 39.527812,39.527812 0 0 0 -22.6418,13.6476 m 53.0165,-7.53554 a 46.9948,46.9948 0 0 0 -30.3747,-6.11206"
       inkscape:label="Wolfgang inner treble cutaway" />
    <path
       id="path556"
       style="display:inline;fill:none;stroke:#000000;stroke-width:3.77953;stroke-linecap:round;stroke-dasharray:none"
       d="m -355.36413,-37.792573 a 71.247304,71.247304 0 0 0 -49.77075,3.4647 m 93.02812,28.1266001 a 93.623063,93.623063 0 0 0 -43.25737,-31.5913001 m 81.71427,90.146 a 415.56072,415.56072 0 0 0 -38.4569,-58.5546999 m 38.4569,58.5546999 a 391.22501,391.22501 0 0 0 33.71683,51.922103 m 0,0 a 126.00055,126.00055 0 0 0 95.50909,47.52633 m 0,0 a 2657.4752,2657.4752 0 0 0 65.400121,0.80487"
       inkscape:label="Wolfgang inner bass cutaway" />
    <path
       id="path512"
       style="display:inline;fill:none;stroke:#000000;stroke-width:3.77953;stroke-linecap:round;stroke-dasharray:none"
       d="m 160.20944,1854.5916 a 1038.9125,1038.9125 0 0 0 260.93805,-13.3149 m -618.81821,-45.9281 a 2041.6676,2041.6676 0 0 0 357.88016,59.243 m -537.19843,-121.165 a 1194.4968,1194.4968 0 0 0 179.31827,61.922"
       inkscape:label="Akula bottom" />
    <path
       id="path515"
       style="display:inline;fill:none;stroke:#000000;stroke-width:3.77953;stroke-linecap:round;stroke-dasharray:none"
       d="m -449.37316,1696.402 a 668.85605,668.85605 0 0 0 72.38417,37.0246 m -138.89929,-85.2276 a 439.99624,439.99624 0 0 0 66.51512,48.203 m -194.65926,-529.5377 a 447.63115,447.63115 0 0 0 128.14414,481.3347 m -9.74278,-726.23895 a 1131.4253,1131.4253 0 0 0 -118.40136,244.90425 m 118.40136,-244.90425 a 480,480 0 0 0 71.99683,-322.01228 M -525.903,51.013433 -453.634,599.94803"
       inkscape:label="Akula bass side" />
    <path
       id="path505"
       style="display:inline;fill:none;stroke:#000000;stroke-width:3.77953;stroke-linecap:round;stroke-dasharray:none"
       d="m 451.69,926.93103 92.925,-478.058 m -92.92508,478.05759 a 315.28637,315.28637 0 0 0 16.6246,176.92078 m 0,0 a 634.19146,634.19146 0 0 0 70.08684,129.5883 m 84.66285,142.2615 a 1099.1761,1099.1761 0 0 0 -84.66285,-142.2615 m 97.51094,448.3574 a 376.0909,376.0909 0 0 0 -12.84809,-306.0959 m -84.66285,421.3647 a 236.70962,236.70962 0 0 0 97.51094,-115.2688 m -214.76481,159.4796 a 343.36019,343.36019 0 0 0 117.25387,-44.2108"
       inkscape:label="Akula treble side" />
    <path
       id="path28"
       style="display:inline;fill:none;stroke:#000000;stroke-width:3.77953;stroke-linecap:round;stroke-dasharray:none"
       d="m 103.08556,275.69777 a 144,144 0 0 0 176.05947,130.51484 m 178.59597,-41.23258 -178.596,41.233 m 265.46984,42.66029 a 72,72 0 0 0 -86.87363,-83.89289"
       inkscape:label="Akula inner treble cutaway" />
    <path
       id="path521"
       style="display:inline;fill:none;stroke:#000000;stroke-width:3.77953;stroke-linecap:round;stroke-dasharray:none"
       d="M -457.26504,13.357464 A 42,42 0 0 0 -525.9028,51.01343 M -233.099,201.45503 -457.265,13.357433 m 224.16608,188.097727 a 78.255372,78.255372 0 0 0 108.54776,-7.68539"
       inkscape:label="Akula inner bass cutaway" />
    <path
       id="path500"
       style="display:inline;fill:none;stroke:#000000;stroke-width:3.77953;stroke-linecap:round;stroke-dasharray:none"
       d="m -351.75482,94.292565 a 58.264478,58.264478 0 0 0 -100.25307,-24.6086 m 100.25307,24.6086 a 327.89194,327.89194 0 0 0 132.65134,191.741245 m 0,0 a 154.17936,154.17936 0 0 0 56.42181,23.98373 m 0,0 a 50.218641,50.218641 0 0 0 60.27742,-48.43117"
       inkscape:label="Fender Lead inner bass cutaway" />
    <path
       id="path490"
       style="display:inline;fill:none;stroke:#000000;stroke-width:3.77953;stroke-linecap:round;stroke-dasharray:none"
       d="m -282.55294,1631.4298 a 1697.2031,1697.2031 0 0 0 564.87679,0"
       inkscape:label="Fender Lead bottom" />
    <path
       id="path479"
       style="display:inline;fill:none;stroke:#000000;stroke-width:3.77953;stroke-linecap:round;stroke-dasharray:none"
       d="m 450.62455,199.33639 a 53.32084,53.32084 0 0 0 -46.9234,-27.83025 m 59.7909,65.76413 a 117.41598,117.41598 0 0 0 -12.8675,-37.93388 m 16.6578,110.67986 a 352.33892,352.33892 0 0 0 -3.7903,-72.74598 m -18.7445,173.30917 a 306.46286,306.46286 0 0 0 22.5348,-100.56319 m -61.1669,188.02012 a 1799.6397,1799.6397 0 0 0 38.6321,-87.45693 m -38.6321,87.45693 a 344.44122,344.44122 0 0 0 -17.6907,249.61901 m 0,0 a 645.03765,645.03765 0 0 0 63.7312,141.97216 m 65.7903,130.90386 a 950.44828,950.44828 0 0 0 -65.7903,-130.90386 m 121.8341,361.65866 a 792.91615,792.91615 0 0 0 -56.0438,-230.7548 m 57.5091,260.8895 a 383.31255,383.31255 0 0 0 -1.4653,-30.1347 m -291.6662,380.1436 a 351.66917,351.66917 0 0 0 293.1315,-350.0089"
       inkscape:label="Fender Lead treble side" />
    <path
       id="path491"
       style="display:inline;fill:none;stroke:#000000;stroke-width:3.77953;stroke-linecap:round;stroke-dasharray:none"
       d="m -572.90761,1330.022 a 351.87311,351.87311 0 0 0 290.35467,301.4078 m -283.60909,-450.9677 a 430.15412,430.15412 0 0 0 -6.74558,149.5599 m 48.40791,-288.6267 a 1021.8878,1021.8878 0 0 0 -41.66233,139.0668 M -456.1555,879.3303 a 2383.0667,2383.0667 0 0 0 -68.3442,162.065 m 68.3442,-162.065 a 1801.8914,1801.8914 0 0 0 58.64061,-141.23313 m 0,0 a 332.43251,332.43251 0 0 0 -10.28472,-253.57058 m -65.69848,-175.43271 a 1269.5518,1269.5518 0 0 0 65.69848,175.43271 m -77.06661,-344.43556 a 392.80336,392.80336 0 0 0 11.36813,169.00285 m 21.4902,-239.409915 a 137.472,137.472 0 0 0 -32.85833,70.407065"
       inkscape:label="Fender Lead bass side" />
    <path
       id="path211"
       style="display:inline;fill:none;stroke:#000000;stroke-width:3.77953;stroke-linecap:round;stroke-dasharray:none"
       d="m 107.54095,331.94464 a 49.202059,49.202059 0 0 0 46.2908,21.14451 m 0,0 a 245.22298,245.22298 0 0 0 78.2392,-22.66067 m 0,0 a 221.23737,221.23737 0 0 0 109.2443,-116.70901 m 62.3859,-42.21333 a 67.374466,67.374466 0 0 0 -62.3859,42.21333"
       inkscape:label="Fender Lead inner treble cutaway" />
    <path
       id="path459"
       style="display:inline;fill:none;stroke:#000000;stroke-width:3.77953;stroke-linecap:round;stroke-dasharray:none"
       d="m 78.388844,1853.5919 a 896.52428,896.52428 0 0 0 111.585996,-6.9714 m -371.18763,-12.1611 a 1770.7862,1770.7862 0 0 0 259.601634,19.1325 m -441.994234,-68.9074 a 794.39614,794.39614 0 0 0 182.3926,49.7749"
       inkscape:label="Mustang bottom" />
    <path
       id="path448"
       style="display:inline;fill:none;stroke:#000000;stroke-width:3.77953;stroke-linecap:round;stroke-dasharray:none"
       inkscape:label="Mustang treble side"
       d="m 478.60184,471.5023 a 201.56426,201.56426 0 0 0 -29.5424,-90.2692 m 20.8899,252.1945 a 616.8379,616.8379 0 0 0 8.6525,-161.9253 m -40.8273,297.8933 a 1482.1244,1482.1244 0 0 0 32.1748,-135.968 m -32.1748,135.968 a 33539.876,33539.876 0 0 0 -39.6437,139.2503 m 0,0 a 227.71094,227.71094 0 0 0 8.4013,148.1352 m 0,0 a 350.66924,350.66924 0 0 0 36.7295,67.5054 m 60.862,102.5004 a 825.45388,825.45388 0 0 0 -60.862,-102.5004 m 88.0464,165.4209 a 615.18814,615.18814 0 0 0 -27.1844,-62.9205 m 53.0946,319.9566 a 518.80775,518.80775 0 0 0 -25.9102,-257.0361 m -19.3601,367.0152 a 250.85347,250.85347 0 0 0 45.2703,-109.9791 m -367.2434,299.877 a 470.9499,470.9499 0 0 0 321.9731,-189.8979" />
    <path
       id="path462"
       style="display:inline;fill:none;stroke:#000000;stroke-width:3.77953;stroke-linecap:round;stroke-dasharray:none"
       d="m -507.61929,1684.3802 a 397.35541,397.35541 0 0 0 144.0139,100.3043 m -213.7296,-241.2709 a 284.06216,284.06216 0 0 0 69.7157,140.9666 m -68.863,-402.869 a 723.25731,723.25731 0 0 0 -0.8527,261.9024 m 83.9199,-507.1859 a 919.97005,919.97005 0 0 0 -83.0672,245.2835 m 83.0672,-245.2835 a 1068.927,1068.927 0 0 0 75.2064,-193.6563 m 0,0 a 422.67032,422.67032 0 0 0 6.0886,-203.4561 m 0,0 a 515.30699,515.30699 0 0 0 -17.8385,-62.8224 m -55.0528,-261.285 a 1011.2378,1011.2378 0 0 0 55.0528,261.285 m -47.3922,-385.1498 a 454.28774,454.28774 0 0 0 -7.6606,123.8648 m 45.2118,-203.3192 a 182.82857,182.82857 0 0 0 -37.5512,79.4544"
       inkscape:label="Mustang bass side" />
    <path
       id="path174"
       style="display:inline;fill:none;stroke:#000000;stroke-width:3.77953;stroke-linecap:round;stroke-dasharray:none"
       d="m 114.17564,420.7477 a 139.99255,139.99255 0 0 0 227.2535,-33.6867 m 72.286,-32.3006 a 62.246206,62.246206 0 0 0 -72.286,32.3006 m 107.6303,-5.8279 a 60.46456,60.46456 0 0 0 -35.3443,-26.4727"
       inkscape:label="Mustang inner treble cutaway" />
    <path
       id="path473"
       style="display:inline;fill:none;stroke:#000000;stroke-width:3.77953;stroke-linecap:round;stroke-dasharray:none"
       inkscape:label="Mustang inner bass cutaway"
       d="m -321.32309,151.6407 a 138.12042,138.12042 0 0 0 -29.0449,-44.02716 m 29.0449,44.02716 a 341.97797,341.97797 0 0 0 72.0169,109.114 m 0,0 a 97.439565,97.439565 0 0 0 76.2498,28.9801 m 0,0 a 75.476529,75.476529 0 0 0 67.51323,-54.9869 M -350.36799,107.61354 a 60.055882,60.055882 0 0 0 -89.4316,4.07516" />
    <path
       id="path430"
       style="display:inline;fill:none;stroke:#000000;stroke-width:3.77953;stroke-linecap:round;stroke-dasharray:none"
       d="m 160.20944,1854.5916 a 1038.9125,1038.9125 0 0 0 260.93805,-13.3149 m -500.347493,-17.2384 a 2329.0641,2329.0641 0 0 0 239.409443,30.5533 m -537.19843,-121.165 a 1337.6777,1337.6777 0 0 0 297.788987,90.6117"
       inkscape:label="Jazzmaster bottom" />
    <path
       id="path433"
       style="display:inline;fill:none;stroke:#000000;stroke-width:3.77953;stroke-linecap:round;stroke-dasharray:none"
       d="m -449.37316,1696.402 a 668.85605,668.85605 0 0 0 72.38417,37.0246 m -138.89929,-85.2276 a 439.99624,439.99624 0 0 0 66.51512,48.203 m -194.65926,-529.5377 a 447.63115,447.63115 0 0 0 128.14414,481.3347 m -80.92198,-597.7456 a 1131.4253,1131.4253 0 0 0 -47.22216,116.4109 m 161.31453,-338.09733 a 3625.5161,3625.5161 0 0 0 -114.09237,221.68643 m 114.09237,-221.68643 a 376.57301,376.57301 0 0 0 41.35383,-114.01019 m 0,0 A 384.85942,384.85942 0 0 0 -452.8951,526.59271 m -34.52238,-119.65343 a 2244.335,2244.335 0 0 0 34.52238,119.65343 m -72.01399,-299.81874 a 1918.6089,1918.6089 0 0 0 37.49161,180.16531 M -521.61321,84.608211 a 396.34526,396.34526 0 0 0 -3.29588,142.165759 m 37.49161,-193.629995 a 82.687467,82.687467 0 0 0 -34.19573,51.464236"
       inkscape:label="Jazzmaster bass side" />
    <path
       id="path418"
       style="display:inline;fill:none;stroke:#000000;stroke-width:3.77953;stroke-linecap:round;stroke-dasharray:none"
       d="m 489.7584,429.15691 a 114.94981,114.94981 0 0 0 -57.768,-40.23128 M 536.49581,548.55546 A 233.47801,233.47801 0 0 0 489.7584,429.15691 m 35.92291,290.80179 a 545.91353,545.91353 0 0 0 10.8145,-171.40324 M 484.1092,850.07401 A 774.60816,774.60816 0 0 0 525.68131,719.9587 M 484.1092,850.07401 a 797.77527,797.77527 0 0 0 -28.24357,78.54173 m 0,0 a 227.29118,227.29118 0 0 0 -8.92765,84.07096 m 0,0 a 315.28637,315.28637 0 0 0 21.37654,91.1647 m 0,0 a 634.19146,634.19146 0 0 0 70.08684,129.5883 m 84.66285,142.2615 a 1099.1761,1099.1761 0 0 0 -84.66285,-142.2615 m 97.51094,448.3574 a 376.0909,376.0909 0 0 0 -12.84809,-306.0959 m -84.66285,421.3647 a 236.70962,236.70962 0 0 0 97.51094,-115.2688 m -214.76481,159.4796 a 343.36019,343.36019 0 0 0 117.25387,-44.2108"
       inkscape:label="Jazzmaster treble side" />
    <path
       id="path416"
       style="display:inline;fill:none;stroke:#000000;stroke-width:3.77953;stroke-linecap:round;stroke-dasharray:none"
       d="m 110.35119,348.16709 a 175.71798,175.71798 0 0 0 208.2007,48.10763 m 113.43851,-7.34909 a 160.57275,160.57275 0 0 0 -113.43851,7.34909"
       inkscape:label="Jazzmaster inner treble cutaway" />
    <path
       id="path44-4"
       style="display:inline;fill:none;stroke:#000000;stroke-width:3.77953;stroke-linecap:round;stroke-dasharray:none"
       inkscape:label="Jazzmaster inner bass cutaway"
       d="m -302.53704,120.1421 a 340.28552,340.28552 0 0 0 54.15848,49.18474 m 0,0 a 259.00494,259.00494 0 0 0 71.74845,36.7485 m 0,0 a 50.88,50.88 0 0 0 57.16129,-18.62184 M -353.76166,65.811006 a 279.46883,279.46883 0 0 0 -39.33802,-32.667032 m 90.56264,86.998126 a 1236.7769,1236.7769 0 0 0 -51.22462,-54.331094 m -39.33802,-32.667032 a 83.348882,83.348882 0 0 0 -94.3178,10e-7" />
    <path
       id="path410"
       style="display:inline;fill:none;stroke:#000000;stroke-width:3.77953;stroke-linecap:round;stroke-dasharray:none"
       d="m -353.05289,139.81413 a 179.3857,179.3857 0 0 0 -107.6202,29.5984 m 199.5654,-11.0756 a 312.10662,312.10662 0 0 0 -91.9452,-18.5228 m 194.2829,70.2226 a 486.27491,486.27491 0 0 0 -102.3377,-51.6998 m 102.3377,51.6998 a 36,36 0 0 0 55.1085,-22.4505 m 4.926299,-23.0047 -4.929999,23.005"
       inkscape:label="Tele bass cutaway - not actually a cutaway" />
    <path
       id="path398"
       style="display:inline;fill:none;stroke:#000000;stroke-width:3.77953;stroke-linecap:round;stroke-dasharray:none"
       d="m -611.54339,1305.9981 a 360.01606,360.01606 0 0 0 182.8072,306.9773 m -155.1739,-494.2744 a 578.53549,578.53549 0 0 0 -27.6333,187.2971 m 109.6749,-386.30087 a 1343.6012,1343.6012 0 0 0 -82.0416,199.00377 m 82.0416,-199.00377 a 1151.616,1151.616 0 0 0 47.0541,-105.0182 m 0,0 a 359.91675,359.91675 0 0 0 12.5032,-38.3464 m 0,0 a 275.4568,275.4568 0 0 0 -6.9,-163.3662 m 0,0 a 1345.1827,1345.1827 0 0 0 -33.834,-85.2874 m -19.8771,-50.2558 a 769.19392,769.19392 0 0 0 19.8771,50.2558 m -37.9189,-111.5833 a 577.4112,577.4112 0 0 0 18.0418,61.3275 m -17.1776,-218.6055 a 336.01839,336.01839 0 0 0 -0.8642,157.278 m 16.9168,-199.0727 a 179.57168,179.57168 0 0 0 -16.0526,41.7947 m 59.4268,-89.4052 a 131.61887,131.61887 0 0 0 -43.3742,47.6105"
       inkscape:label="Tele bass side" />
    <path
       id="path393"
       style="display:inline;fill:none;stroke:#000000;stroke-width:3.77953;stroke-linecap:round;stroke-dasharray:none"
       d="m 313.02889,1652.1849 a 361.4267,361.4267 0 0 0 98.3449,-31.4484 m -284.545,49.4009 a 1336.2249,1336.2249 0 0 0 186.2001,-17.9525 m -436.38868,17.9525 a 4800.0447,4800.0447 0 0 0 250.18858,0 m -453.50418,-20.5129 a 1372.9515,1372.9515 0 0 0 203.3156,20.5129 m -305.3764,-57.162 a 321.02925,321.02925 0 0 0 102.0608,36.6491"
       inkscape:label="Tele bottom" />
    <path
       id="path379"
       style="display:inline;fill:none;stroke:#000000;stroke-width:3.77953;stroke-linecap:round;stroke-dasharray:none"
       d="m 522.51039,259.72613 a 179.44859,179.44859 0 0 0 -41.7314,-80.9969 m 42.3917,223.9904 a 335.9712,335.9712 0 0 0 -0.6603,-142.9935 m -10.609,187.2238 a 575.74226,575.74226 0 0 0 11.2693,-44.2303 m -42.0119,128.9879 a 766.7808,766.7808 0 0 0 30.7426,-84.7576 m -30.7426,84.7576 a 1354.9943,1354.9943 0 0 0 -31.2719,79.3773 m 0,0 a 275.77801,275.77801 0 0 0 -6.8059,164.0953 m 0,0 a 360.12487,360.12487 0 0 0 12.3542,37.7717 m 0,0 a 1151.713,1151.713 0 0 0 47.0311,104.9589 m 73.9793,174.68657 a 1344.2523,1344.2523 0 0 0 -73.9793,-174.68657 m 103.7487,295.62387 a 703.62794,703.62794 0 0 0 -29.7694,-120.9373 m 35.5147,221.9512 a 528.20471,528.20471 0 0 0 -5.7453,-101.0139 m -15.5091,207.8589 a 347.80016,347.80016 0 0 0 21.2544,-106.845 m -83.5233,214.5219 a 366.14931,366.14931 0 0 0 62.2689,-107.6769 m -179.3321,199.343 a 354.14747,354.14747 0 0 0 117.0632,-91.6661"
       inkscape:label="Tele treble side" />
    <path
       id="path49"
       style="display:inline;fill:none;stroke:#000000;stroke-width:3.77953;stroke-linecap:round;stroke-dasharray:none"
       d="m 104.88261,317.36633 a 174.64869,174.64869 0 0 0 8.3403,50.7168 m 0,0 a 59.465122,59.465122 0 0 0 12.43308,21.6182 m 0,0 a 95.9232,95.9232 0 0 0 96.1359,28.4498 m 0,0 a 143.96911,143.96911 0 0 0 74.2456,-48.0452 m 0,0 a 240.02321,240.02321 0 0 0 43.5881,-81.6805 m 0,0 a 1680.3008,1680.3008 0 0 0 16.5827,-58.0731 m 25.4645,-47.9585 a 120.14668,120.14668 0 0 0 -25.4645,47.9585 m 97.0647,-68.9301 a 69.149282,69.149282 0 0 0 -71.6002,20.9716 m 99.1062,-3.6646 a 59.472108,59.472108 0 0 0 -27.506,-17.307"
       inkscape:label="Tele inner treble cutaway" />
    <path
       id="path366"
       style="display:inline;fill:none;stroke:#000000;stroke-width:3.77953;stroke-linecap:round;stroke-dasharray:none"
       d="m -382.58548,-66.292361 a 53.415109,53.415109 0 0 0 -39.84942,-12.547041 m 56.1632,46.367703 a 46.615357,46.615357 0 0 0 -16.31378,-33.820662 m 16.31378,33.820662 a 1111.7293,1111.7293 0 0 0 9.00561,107.610392 m 0,0 A 165.09155,165.09155 0 0 0 -232.1328,213.9317 m 0,0 a 187.39568,187.39568 0 0 0 56.58255,4.7308 m 0,0 a 75.476529,75.476529 0 0 0 66.50037,-51.65956"
       inkscape:label="Strat inner bass cutaway" />
    <path
       id="path355"
       style="display:inline;fill:none;stroke:#000000;stroke-width:3.77953;stroke-linecap:round;stroke-dasharray:none"
       d="m -612,1287.2282 a 339.27279,339.27279 0 0 0 152.55444,283.2707 M -607.65885,1210.4207 A 681.64434,681.64434 0 0 0 -612,1287.2282 m 75.33109,-333.51673 a 852.39084,852.39084 0 0 0 -70.98994,256.70923 m 70.98994,-256.70923 a 3819.966,3819.966 0 0 0 77.28455,-182.41994 m 0,0 a 387.32534,387.32534 0 0 0 25.56122,-109.76127 m 0,0 A 371.7386,371.7386 0 0 0 -446.014,531.64259 m 0,0 A 1582.6405,1582.6405 0 0 0 -480.2975,423.0998 M -530.24771,227.88703 A 1103.794,1103.794 0 0 0 -480.2975,423.0998 M -526.02473,48.42258 a 494.22931,494.22931 0 0 0 -4.22298,179.46445 m 55.05324,-280.007908 A 217.53877,217.53877 0 0 0 -526.02473,48.42258 M -422.4349,-78.839402 a 81.349065,81.349065 0 0 0 -52.75957,26.718524"
       inkscape:label="Strat bass side" />
    <path
       id="path350"
       style="display:inline;fill:none;stroke:#000000;stroke-width:3.77953;stroke-linecap:round;stroke-dasharray:none"
       d="m 253.4939,1643.9637 a 459.68117,459.68117 0 0 0 205.95166,-73.4648 M 50.816966,1654.3597 A 1980.8688,1980.8688 0 0 0 253.4939,1643.9637 M -50.817,1654.36 H 50.817 m -304.3109,-10.3963 a 1980.8688,1980.8688 0 0 0 202.676934,10.396 m -408.628594,-83.8608 a 459.68117,459.68117 0 0 0 205.95166,73.4648"
       inkscape:label="Strat bottom" />
    <path
       id="path342"
       style="display:inline;fill:none;stroke:#000000;stroke-width:3.77953;stroke-linecap:round;stroke-dasharray:none"
       d="M 520.39503,298.61016 A 226.10564,226.10564 0 0 0 481.96625,186.27529 m 6.2923,313.58895 a 462.20212,462.20212 0 0 0 32.13648,-201.25408 m -66.68499,282.44308 a 2035.0654,2035.0654 0 0 0 34.54851,-81.189 m -34.54851,81.189 a 276.07019,276.07019 0 0 0 -3.95117,217.96202 m 0,0 a 1937.7824,1937.7824 0 0 0 57.08441,126.60456 m 67.56954,171.81968 A 1090.5233,1090.5233 0 0 0 506.84328,925.61982 m 92.47146,408.38548 a 646.40714,646.40714 0 0 0 -24.90192,-236.5658 m -114.96726,473.0594 a 313.29952,313.29952 0 0 0 139.86918,-236.4936"
       inkscape:label="Strat treble side" />
    <path
       id="path5"
       style="display:inline;fill:none;stroke:#000000;stroke-width:3.77953;stroke-linecap:round;stroke-dasharray:none"
       d="m 119.39267,370.84318 a 182.24063,182.24063 0 0 0 177.18202,-0.32936 m 0,0 a 126.64469,126.64469 0 0 0 59.06602,-72.64544 m 0,0 a 405.45619,405.45619 0 0 0 12.43557,-50.97456 m 8.9599,-42.06301 a 608.56744,608.56744 0 0 0 -8.9599,42.06301 m 113.88997,-60.61853 a 58.356694,58.356694 0 0 0 -104.93007,18.55552"
       inkscape:label="Strat inner treble cutaway" />
    <path
       style="display:inline;fill:#ffcc00;stroke:#ff0000"
       d="m -499.32589,647.17099 967.96695,53.00107"
       id="path592"
       inkscape:label="Strat waist offset angle" />
    <path
       style="display:inline;fill:#ff0000;stroke:#ff0000"
       d="M -479.79918,702.96159 463.062,728.06736"
       id="path593"
       inkscape:label="Tele waist offset angle" />
    <path
       style="display:inline;fill:#ff0000;stroke:#ff0000"
       d="M -463.062,649.96052 477.00965,995.86225"
       id="path594"
       inkscape:label="Jazzmaster waist offset angle" />
    <path
       style="display:inline;fill:#ff0000;stroke:#ff0000"
       d="M -463.062,649.96052 477.00965,995.86225"
       id="path595"
       inkscape:label="Akula waist offset angle" />
    <path
       style="display:inline;fill:#ff0000;stroke:#ff0000"
       d="M -440.74576,700.17206 412.85046,967.96695"
       id="path596"
       inkscape:label="Mustang waist offset angle" />
    <path
       style="display:inline;fill:#ff0000;stroke:#ff0000"
       d="m -407.2714,636.01287 817.33233,5.57906"
       id="path597"
       inkscape:label="Fender Lead waist offset angle" />
    <path
       style="display:inline;fill:#ff0000;stroke:#ff0000"
       d="M -451.90388,513.27354 463.062,658.32911"
       id="path598"
       inkscape:label="Wolfgang waist offset angle" />
    <path
       style="display:inline;fill:#ff0000;stroke:#ff0000"
       d="m 396.11328,733.64642 -808.96374,-2.78953"
       id="path599"
       inkscape:label="Les Paul waist offset angle" />
  </g>
</svg>
